<svg width="670" height="368" viewBox="0 0 670 368" fill="none" xmlns="http://www.w3.org/2000/svg">
<path d="M611 153.088C611 276.265 416.526 368 254.154 368C91.7819 368 0 294.958 0 171.781C0 48.6037 40.6763 0 203.049 0C365.421 0 611 29.9109 611 153.088Z" fill="#F0801A"/>
<g clip-path="url(#clip0_29_38)">
<path fill-rule="evenodd" clip-rule="evenodd" d="M372.1 103.909C373.284 93.1793 373.717 80.5953 373.837 73.0905C373.861 71.6 373.87 70.108 373.87 68.8132C373.87 66.3119 374.144 63.867 374.39 61.6783C374.721 58.7259 374.995 56.2844 374.448 55.213C373.977 54.2894 372.188 54.5511 367.701 56.8396C366.025 57.6943 362.372 60.0636 359.359 62.0177C357.659 63.1205 356.154 64.0966 355.357 64.5788C351.647 66.8228 348.647 69.7195 347.45 73.7565C346.23 77.8694 346.825 83.2531 350.332 90.4674C351.785 93.4556 353.498 95.9774 355.126 98.3732C357.648 102.086 359.976 105.513 360.997 109.967C361.542 112.341 362.864 116.417 364.503 119.348C365.431 121.008 366.372 122.239 367.123 122.321C367.142 122.32 367.161 122.32 367.18 122.321L367.196 122.32C368.934 122.32 370.293 117.119 371.337 109.953C371.328 109.778 371.354 109.604 371.41 109.441C371.658 107.692 371.888 105.832 372.1 103.909V103.909Z" fill="white"/>
<path fill-rule="evenodd" clip-rule="evenodd" d="M477.55 73.7565C476.353 69.7196 473.353 66.8228 469.642 64.5788C468.845 64.0966 467.34 63.1205 465.64 62.0177C462.627 60.0636 458.975 57.6943 457.299 56.8396C452.812 54.5511 451.022 54.2894 450.551 55.213C450.005 56.2844 450.279 58.7259 450.61 61.6783C450.855 63.867 451.129 66.3119 451.129 68.8132C451.129 70.108 451.139 71.6 451.163 73.0905C451.283 80.5952 451.715 93.1793 452.899 103.909C453.112 105.832 453.341 107.692 453.589 109.441C453.646 109.604 453.671 109.778 453.663 109.953C454.706 117.118 456.066 122.32 457.804 122.32L457.82 122.32C457.839 122.32 457.858 122.32 457.877 122.321C458.628 122.238 459.569 121.007 460.497 119.348C462.135 116.417 463.458 112.341 464.002 109.967C465.024 105.513 467.352 102.086 469.874 98.3731C471.501 95.9772 473.214 93.4555 474.667 90.4673C478.175 83.253 478.769 77.8693 477.55 73.7564V73.7565Z" fill="white"/>
<path fill-rule="evenodd" clip-rule="evenodd" d="M447.699 60.1484C440.672 54.0007 426.625 50.9345 412.52 50.9345V50.9292C398.393 50.9292 384.321 54.0077 377.301 60.1486C377.242 60.7362 377.174 61.3466 377.103 61.9774C376.868 64.0759 376.605 66.4203 376.605 68.8132C376.605 69.7367 376.592 71.1669 376.561 73.1333C376.439 80.7174 376.004 93.4214 374.813 104.208C374.605 106.099 374.368 107.935 374.099 109.683C375.135 112.128 376.214 114.411 377.295 116.698C381.825 126.284 386.388 135.942 386.388 152.992C386.388 156.36 388.486 159.249 391.453 160.851C392.737 161.544 394.178 161.996 395.679 162.144C395.735 162.137 395.792 162.133 395.85 162.133C395.978 162.133 396.102 162.15 396.219 162.183C396.273 162.186 396.326 162.188 396.38 162.19C398.138 162.25 399.96 161.892 401.7 161.02C405.81 158.96 409.494 154.031 410.957 144.973C404.94 143.923 400.078 136.995 400.078 132.492C400.078 125.48 406.287 127.278 412.021 127.258C418.07 127.238 424.922 125.287 424.922 132.492C424.922 136.995 420.059 143.923 414.043 144.973C415.506 154.031 419.19 158.96 423.3 161.02C425.039 161.892 426.862 162.25 428.62 162.19C428.674 162.188 428.727 162.186 428.781 162.183C428.898 162.15 429.022 162.133 429.15 162.133C429.208 162.133 429.265 162.137 429.321 162.144C430.822 161.996 432.263 161.544 433.547 160.851C436.514 159.249 438.612 156.36 438.612 152.992C438.612 135.942 443.175 126.284 447.705 116.699C448.786 114.411 449.865 112.128 450.9 109.683C450.632 107.935 450.395 106.099 450.187 104.208C448.996 93.4214 448.56 80.7173 448.439 73.1333C448.408 71.1669 448.395 69.7367 448.395 68.8132C448.395 66.4203 448.132 64.0759 447.897 61.9774C447.826 61.3465 447.758 60.7359 447.699 60.1484H447.699ZM427.104 91.7602C427.104 88.4314 428.941 83.1499 432.27 83.1499C435.599 83.1499 440.88 85.8483 440.88 89.1771C440.88 92.5058 435.599 95.2043 432.27 95.2043C428.941 95.2043 427.104 95.0889 427.104 91.7602ZM392.73 83.1499C396.059 83.1499 397.896 88.4314 397.896 91.7602C397.896 95.0889 396.059 95.2044 392.73 95.2044C389.401 95.2044 384.12 92.5058 384.12 89.1772C384.12 85.8484 389.401 83.1499 392.73 83.1499Z" fill="white"/>
<path fill-rule="evenodd" clip-rule="evenodd" d="M422.082 163.456C418.149 161.484 414.567 157.403 412.5 150.486C410.433 157.403 406.851 161.484 402.918 163.456C401.123 164.355 399.26 164.815 397.432 164.905C397.95 166.593 399.382 168.137 401.426 169.358C404.235 171.034 408.148 172.071 412.5 172.071C416.852 172.071 420.765 171.034 423.574 169.358C425.618 168.137 427.05 166.594 427.568 164.905C425.74 164.816 423.877 164.355 422.082 163.456Z" fill="white"/>
</g>
<path d="M78.6055 120.344V163H72.9512V120.344H78.6055ZM96.4766 139.533V144.162H77.375V139.533H96.4766ZM99.377 120.344V124.973H77.375V120.344H99.377ZM111.184 131.301V163H105.734V131.301H111.184ZM105.324 122.893C105.324 122.014 105.588 121.271 106.115 120.666C106.662 120.061 107.463 119.758 108.518 119.758C109.553 119.758 110.344 120.061 110.891 120.666C111.457 121.271 111.74 122.014 111.74 122.893C111.74 123.732 111.457 124.455 110.891 125.061C110.344 125.646 109.553 125.939 108.518 125.939C107.463 125.939 106.662 125.646 106.115 125.061C105.588 124.455 105.324 123.732 105.324 122.893ZM125.305 138.068V163H119.885V131.301H125.012L125.305 138.068ZM124.016 145.949L121.76 145.861C121.779 143.693 122.102 141.691 122.727 139.855C123.352 138 124.23 136.389 125.363 135.021C126.496 133.654 127.844 132.6 129.406 131.857C130.988 131.096 132.736 130.715 134.65 130.715C136.213 130.715 137.619 130.93 138.869 131.359C140.119 131.77 141.184 132.434 142.062 133.352C142.961 134.27 143.645 135.461 144.113 136.926C144.582 138.371 144.816 140.139 144.816 142.229V163H139.367V142.17C139.367 140.51 139.123 139.182 138.635 138.186C138.146 137.17 137.434 136.438 136.496 135.988C135.559 135.52 134.406 135.285 133.039 135.285C131.691 135.285 130.461 135.568 129.348 136.135C128.254 136.701 127.307 137.482 126.506 138.479C125.725 139.475 125.109 140.617 124.66 141.906C124.23 143.176 124.016 144.523 124.016 145.949ZM173.029 156.848V118H178.479V163H173.498L173.029 156.848ZM151.701 147.502V146.887C151.701 144.465 151.994 142.268 152.58 140.295C153.186 138.303 154.035 136.594 155.129 135.168C156.242 133.742 157.561 132.648 159.084 131.887C160.627 131.105 162.346 130.715 164.24 130.715C166.232 130.715 167.971 131.066 169.455 131.77C170.959 132.453 172.229 133.459 173.264 134.787C174.318 136.096 175.148 137.678 175.754 139.533C176.359 141.389 176.779 143.488 177.014 145.832V148.527C176.799 150.852 176.379 152.941 175.754 154.797C175.148 156.652 174.318 158.234 173.264 159.543C172.229 160.852 170.959 161.857 169.455 162.561C167.951 163.244 166.193 163.586 164.182 163.586C162.326 163.586 160.627 163.186 159.084 162.385C157.561 161.584 156.242 160.461 155.129 159.016C154.035 157.57 153.186 155.871 152.58 153.918C151.994 151.945 151.701 149.807 151.701 147.502ZM157.15 146.887V147.502C157.15 149.084 157.307 150.568 157.619 151.955C157.951 153.342 158.459 154.562 159.143 155.617C159.826 156.672 160.695 157.502 161.75 158.107C162.805 158.693 164.064 158.986 165.529 158.986C167.326 158.986 168.801 158.605 169.953 157.844C171.125 157.082 172.062 156.076 172.766 154.826C173.469 153.576 174.016 152.219 174.406 150.754V143.693C174.172 142.619 173.83 141.584 173.381 140.588C172.951 139.572 172.385 138.674 171.682 137.893C170.998 137.092 170.148 136.457 169.133 135.988C168.137 135.52 166.955 135.285 165.588 135.285C164.104 135.285 162.824 135.598 161.75 136.223C160.695 136.828 159.826 137.668 159.143 138.742C158.459 139.797 157.951 141.027 157.619 142.434C157.307 143.82 157.15 145.305 157.15 146.887ZM204.582 120.344L215.656 141.76L226.76 120.344H233.176L218.469 147.062V163H212.814V147.062L198.107 120.344H204.582ZM234.465 147.502V146.828C234.465 144.543 234.797 142.424 235.461 140.471C236.125 138.498 237.082 136.789 238.332 135.344C239.582 133.879 241.096 132.746 242.873 131.945C244.65 131.125 246.643 130.715 248.85 130.715C251.076 130.715 253.078 131.125 254.855 131.945C256.652 132.746 258.176 133.879 259.426 135.344C260.695 136.789 261.662 138.498 262.326 140.471C262.99 142.424 263.322 144.543 263.322 146.828V147.502C263.322 149.787 262.99 151.906 262.326 153.859C261.662 155.812 260.695 157.521 259.426 158.986C258.176 160.432 256.662 161.564 254.885 162.385C253.127 163.186 251.135 163.586 248.908 163.586C246.682 163.586 244.68 163.186 242.902 162.385C241.125 161.564 239.602 160.432 238.332 158.986C237.082 157.521 236.125 155.812 235.461 153.859C234.797 151.906 234.465 149.787 234.465 147.502ZM239.885 146.828V147.502C239.885 149.084 240.07 150.578 240.441 151.984C240.812 153.371 241.369 154.602 242.111 155.676C242.873 156.75 243.82 157.6 244.953 158.225C246.086 158.83 247.404 159.133 248.908 159.133C250.393 159.133 251.691 158.83 252.805 158.225C253.938 157.6 254.875 156.75 255.617 155.676C256.359 154.602 256.916 153.371 257.287 151.984C257.678 150.578 257.873 149.084 257.873 147.502V146.828C257.873 145.266 257.678 143.791 257.287 142.404C256.916 140.998 256.35 139.758 255.588 138.684C254.846 137.59 253.908 136.73 252.775 136.105C251.662 135.48 250.354 135.168 248.85 135.168C247.365 135.168 246.057 135.48 244.924 136.105C243.811 136.73 242.873 137.59 242.111 138.684C241.369 139.758 240.812 140.998 240.441 142.404C240.07 143.791 239.885 145.266 239.885 146.828ZM289.514 155.676V131.301H294.963V163H289.777L289.514 155.676ZM290.539 148.996L292.795 148.938C292.795 151.047 292.57 153 292.121 154.797C291.691 156.574 290.988 158.117 290.012 159.426C289.035 160.734 287.756 161.76 286.174 162.502C284.592 163.225 282.668 163.586 280.402 163.586C278.859 163.586 277.443 163.361 276.154 162.912C274.885 162.463 273.791 161.77 272.873 160.832C271.955 159.895 271.242 158.674 270.734 157.17C270.246 155.666 270.002 153.859 270.002 151.75V131.301H275.422V151.809C275.422 153.234 275.578 154.416 275.891 155.354C276.223 156.271 276.662 157.004 277.209 157.551C277.775 158.078 278.4 158.449 279.084 158.664C279.787 158.879 280.51 158.986 281.252 158.986C283.557 158.986 285.383 158.547 286.73 157.668C288.078 156.77 289.045 155.568 289.631 154.064C290.236 152.541 290.539 150.852 290.539 148.996ZM308.645 136.281V163H303.225V131.301H308.498L308.645 136.281ZM318.547 131.125L318.518 136.164C318.068 136.066 317.639 136.008 317.229 135.988C316.838 135.949 316.389 135.93 315.881 135.93C314.631 135.93 313.527 136.125 312.57 136.516C311.613 136.906 310.803 137.453 310.139 138.156C309.475 138.859 308.947 139.699 308.557 140.676C308.186 141.633 307.941 142.688 307.824 143.84L306.301 144.719C306.301 142.805 306.486 141.008 306.857 139.328C307.248 137.648 307.844 136.164 308.645 134.875C309.445 133.566 310.461 132.551 311.691 131.828C312.941 131.086 314.426 130.715 316.145 130.715C316.535 130.715 316.984 130.764 317.492 130.861C318 130.939 318.352 131.027 318.547 131.125ZM88.6836 234.271H77.2871V229.672H88.6836C90.8906 229.672 92.6777 229.32 94.0449 228.617C95.4121 227.914 96.4082 226.938 97.0332 225.688C97.6777 224.438 98 223.012 98 221.41C98 219.945 97.6777 218.568 97.0332 217.279C96.4082 215.99 95.4121 214.955 94.0449 214.174C92.6777 213.373 90.8906 212.973 88.6836 212.973H78.6055V251H72.9512V208.344H88.6836C91.9062 208.344 94.6309 208.9 96.8574 210.014C99.084 211.127 100.773 212.67 101.926 214.643C103.078 216.596 103.654 218.832 103.654 221.352C103.654 224.086 103.078 226.42 101.926 228.354C100.773 230.287 99.084 231.762 96.8574 232.777C94.6309 233.773 91.9062 234.271 88.6836 234.271ZM122.727 251.586C120.52 251.586 118.518 251.215 116.721 250.473C114.943 249.711 113.41 248.646 112.121 247.279C110.852 245.912 109.875 244.291 109.191 242.416C108.508 240.541 108.166 238.49 108.166 236.264V235.033C108.166 232.455 108.547 230.16 109.309 228.148C110.07 226.117 111.105 224.398 112.414 222.992C113.723 221.586 115.207 220.521 116.867 219.799C118.527 219.076 120.246 218.715 122.023 218.715C124.289 218.715 126.242 219.105 127.883 219.887C129.543 220.668 130.9 221.762 131.955 223.168C133.01 224.555 133.791 226.195 134.299 228.09C134.807 229.965 135.061 232.016 135.061 234.242V236.674H111.389V232.25H129.641V231.84C129.562 230.434 129.27 229.066 128.762 227.738C128.273 226.41 127.492 225.316 126.418 224.457C125.344 223.598 123.879 223.168 122.023 223.168C120.793 223.168 119.66 223.432 118.625 223.959C117.59 224.467 116.701 225.229 115.959 226.244C115.217 227.26 114.641 228.5 114.23 229.965C113.82 231.43 113.615 233.119 113.615 235.033V236.264C113.615 237.768 113.82 239.184 114.23 240.512C114.66 241.82 115.275 242.973 116.076 243.969C116.896 244.965 117.883 245.746 119.035 246.312C120.207 246.879 121.535 247.162 123.02 247.162C124.934 247.162 126.555 246.771 127.883 245.99C129.211 245.209 130.373 244.164 131.369 242.855L134.65 245.463C133.967 246.498 133.098 247.484 132.043 248.422C130.988 249.359 129.689 250.121 128.146 250.707C126.623 251.293 124.816 251.586 122.727 251.586ZM146.809 224.281V251H141.389V219.301H146.662L146.809 224.281ZM156.711 219.125L156.682 224.164C156.232 224.066 155.803 224.008 155.393 223.988C155.002 223.949 154.553 223.93 154.045 223.93C152.795 223.93 151.691 224.125 150.734 224.516C149.777 224.906 148.967 225.453 148.303 226.156C147.639 226.859 147.111 227.699 146.721 228.676C146.35 229.633 146.105 230.688 145.988 231.84L144.465 232.719C144.465 230.805 144.65 229.008 145.021 227.328C145.412 225.648 146.008 224.164 146.809 222.875C147.609 221.566 148.625 220.551 149.855 219.828C151.105 219.086 152.59 218.715 154.309 218.715C154.699 218.715 155.148 218.764 155.656 218.861C156.164 218.939 156.516 219.027 156.711 219.125ZM170.275 251H164.855V215.961C164.855 213.676 165.266 211.752 166.086 210.189C166.926 208.607 168.127 207.416 169.689 206.615C171.252 205.795 173.107 205.385 175.256 205.385C175.881 205.385 176.506 205.424 177.131 205.502C177.775 205.58 178.4 205.697 179.006 205.854L178.713 210.277C178.303 210.18 177.834 210.111 177.307 210.072C176.799 210.033 176.291 210.014 175.783 210.014C174.631 210.014 173.635 210.248 172.795 210.717C171.975 211.166 171.35 211.83 170.92 212.709C170.49 213.588 170.275 214.672 170.275 215.961V251ZM177.014 219.301V223.461H159.846V219.301H177.014ZM195.5 251.586C193.293 251.586 191.291 251.215 189.494 250.473C187.717 249.711 186.184 248.646 184.895 247.279C183.625 245.912 182.648 244.291 181.965 242.416C181.281 240.541 180.939 238.49 180.939 236.264V235.033C180.939 232.455 181.32 230.16 182.082 228.148C182.844 226.117 183.879 224.398 185.188 222.992C186.496 221.586 187.98 220.521 189.641 219.799C191.301 219.076 193.02 218.715 194.797 218.715C197.062 218.715 199.016 219.105 200.656 219.887C202.316 220.668 203.674 221.762 204.729 223.168C205.783 224.555 206.564 226.195 207.072 228.09C207.58 229.965 207.834 232.016 207.834 234.242V236.674H184.162V232.25H202.414V231.84C202.336 230.434 202.043 229.066 201.535 227.738C201.047 226.41 200.266 225.316 199.191 224.457C198.117 223.598 196.652 223.168 194.797 223.168C193.566 223.168 192.434 223.432 191.398 223.959C190.363 224.467 189.475 225.229 188.732 226.244C187.99 227.26 187.414 228.5 187.004 229.965C186.594 231.43 186.389 233.119 186.389 235.033V236.264C186.389 237.768 186.594 239.184 187.004 240.512C187.434 241.82 188.049 242.973 188.85 243.969C189.67 244.965 190.656 245.746 191.809 246.312C192.98 246.879 194.309 247.162 195.793 247.162C197.707 247.162 199.328 246.771 200.656 245.99C201.984 245.209 203.146 244.164 204.143 242.855L207.424 245.463C206.74 246.498 205.871 247.484 204.816 248.422C203.762 249.359 202.463 250.121 200.92 250.707C199.396 251.293 197.59 251.586 195.5 251.586ZM226.848 247.133C228.137 247.133 229.328 246.869 230.422 246.342C231.516 245.814 232.414 245.092 233.117 244.174C233.82 243.236 234.221 242.172 234.318 240.98H239.475C239.377 242.855 238.742 244.604 237.57 246.225C236.418 247.826 234.904 249.125 233.029 250.121C231.154 251.098 229.094 251.586 226.848 251.586C224.465 251.586 222.385 251.166 220.607 250.326C218.85 249.486 217.385 248.334 216.213 246.869C215.061 245.404 214.191 243.725 213.605 241.83C213.039 239.916 212.756 237.895 212.756 235.766V234.535C212.756 232.406 213.039 230.395 213.605 228.5C214.191 226.586 215.061 224.896 216.213 223.432C217.385 221.967 218.85 220.814 220.607 219.975C222.385 219.135 224.465 218.715 226.848 218.715C229.328 218.715 231.496 219.223 233.352 220.238C235.207 221.234 236.662 222.602 237.717 224.34C238.791 226.059 239.377 228.012 239.475 230.199H234.318C234.221 228.891 233.85 227.709 233.205 226.654C232.58 225.6 231.721 224.76 230.627 224.135C229.553 223.49 228.293 223.168 226.848 223.168C225.188 223.168 223.791 223.5 222.658 224.164C221.545 224.809 220.656 225.688 219.992 226.801C219.348 227.895 218.879 229.115 218.586 230.463C218.312 231.791 218.176 233.148 218.176 234.535V235.766C218.176 237.152 218.312 238.52 218.586 239.867C218.859 241.215 219.318 242.436 219.963 243.529C220.627 244.623 221.516 245.502 222.629 246.166C223.762 246.811 225.168 247.133 226.848 247.133ZM258.84 219.301V223.461H241.701V219.301H258.84ZM247.502 211.596H252.922V243.148C252.922 244.223 253.088 245.033 253.42 245.58C253.752 246.127 254.182 246.488 254.709 246.664C255.236 246.84 255.803 246.928 256.408 246.928C256.857 246.928 257.326 246.889 257.814 246.811C258.322 246.713 258.703 246.635 258.957 246.576L258.986 251C258.557 251.137 257.99 251.264 257.287 251.381C256.604 251.518 255.773 251.586 254.797 251.586C253.469 251.586 252.248 251.322 251.135 250.795C250.021 250.268 249.133 249.389 248.469 248.158C247.824 246.908 247.502 245.229 247.502 243.119V211.596ZM304.877 229.459H289.479V219.748H304.877C307.257 219.748 309.194 219.36 310.688 218.585C312.182 217.783 313.275 216.676 313.967 215.265C314.659 213.854 315.004 212.263 315.004 210.492C315.004 208.694 314.659 207.02 313.967 205.47C313.275 203.921 312.182 202.676 310.688 201.735C309.194 200.794 307.257 200.324 304.877 200.324H293.796V251H281.345V190.57H304.877C309.609 190.57 313.662 191.428 317.038 193.144C320.441 194.831 323.042 197.169 324.841 200.158C326.639 203.146 327.539 206.563 327.539 210.409C327.539 214.311 326.639 217.686 324.841 220.536C323.042 223.386 320.441 225.586 317.038 227.135C313.662 228.685 309.609 229.459 304.877 229.459ZM332.893 229.003V228.131C332.893 224.839 333.363 221.809 334.304 219.042C335.244 216.247 336.614 213.826 338.413 211.779C340.211 209.731 342.425 208.14 345.053 207.006C347.682 205.844 350.698 205.263 354.101 205.263C357.504 205.263 360.534 205.844 363.19 207.006C365.847 208.14 368.074 209.731 369.873 211.779C371.699 213.826 373.082 216.247 374.023 219.042C374.964 221.809 375.434 224.839 375.434 228.131V229.003C375.434 232.268 374.964 235.298 374.023 238.092C373.082 240.859 371.699 243.28 369.873 245.355C368.074 247.403 365.861 248.994 363.232 250.128C360.603 251.263 357.587 251.83 354.184 251.83C350.781 251.83 347.751 251.263 345.095 250.128C342.466 248.994 340.239 247.403 338.413 245.355C336.614 243.28 335.244 240.859 334.304 238.092C333.363 235.298 332.893 232.268 332.893 229.003ZM344.846 228.131V229.003C344.846 230.884 345.012 232.641 345.344 234.274C345.676 235.906 346.201 237.345 346.921 238.59C347.668 239.808 348.636 240.762 349.826 241.454C351.016 242.146 352.469 242.492 354.184 242.492C355.844 242.492 357.269 242.146 358.459 241.454C359.649 240.762 360.603 239.808 361.323 238.59C362.042 237.345 362.568 235.906 362.9 234.274C363.26 232.641 363.439 230.884 363.439 229.003V228.131C363.439 226.305 363.26 224.59 362.9 222.985C362.568 221.352 362.028 219.914 361.281 218.668C360.562 217.396 359.607 216.4 358.417 215.68C357.228 214.961 355.789 214.601 354.101 214.601C352.413 214.601 350.974 214.961 349.785 215.68C348.623 216.4 347.668 217.396 346.921 218.668C346.201 219.914 345.676 221.352 345.344 222.985C345.012 224.59 344.846 226.305 344.846 228.131ZM380.871 229.003V228.131C380.871 224.839 381.341 221.809 382.282 219.042C383.223 216.247 384.593 213.826 386.391 211.779C388.19 209.731 390.403 208.14 393.032 207.006C395.66 205.844 398.676 205.263 402.08 205.263C405.483 205.263 408.513 205.844 411.169 207.006C413.825 208.14 416.053 209.731 417.851 211.779C419.677 213.826 421.061 216.247 422.001 219.042C422.942 221.809 423.413 224.839 423.413 228.131V229.003C423.413 232.268 422.942 235.298 422.001 238.092C421.061 240.859 419.677 243.28 417.851 245.355C416.053 247.403 413.839 248.994 411.21 250.128C408.582 251.263 405.566 251.83 402.163 251.83C398.759 251.83 395.729 251.263 393.073 250.128C390.445 248.994 388.217 247.403 386.391 245.355C384.593 243.28 383.223 240.859 382.282 238.092C381.341 235.298 380.871 232.268 380.871 229.003ZM392.824 228.131V229.003C392.824 230.884 392.99 232.641 393.322 234.274C393.654 235.906 394.18 237.345 394.899 238.59C395.646 239.808 396.615 240.762 397.805 241.454C398.994 242.146 400.447 242.492 402.163 242.492C403.823 242.492 405.248 242.146 406.438 241.454C407.627 240.762 408.582 239.808 409.301 238.59C410.021 237.345 410.546 235.906 410.878 234.274C411.238 232.641 411.418 230.884 411.418 229.003V228.131C411.418 226.305 411.238 224.59 410.878 222.985C410.546 221.352 410.007 219.914 409.26 218.668C408.54 217.396 407.586 216.4 406.396 215.68C405.206 214.961 403.767 214.601 402.08 214.601C400.392 214.601 398.953 214.961 397.763 215.68C396.601 216.4 395.646 217.396 394.899 218.668C394.18 219.914 393.654 221.352 393.322 222.985C392.99 224.59 392.824 226.305 392.824 228.131ZM449.311 242.492C450.778 242.492 452.078 242.215 453.212 241.662C454.347 241.081 455.232 240.278 455.869 239.254C456.533 238.203 456.879 236.972 456.906 235.561H468.154C468.126 238.715 467.282 241.523 465.622 243.986C463.962 246.421 461.735 248.344 458.94 249.755C456.145 251.138 453.019 251.83 449.56 251.83C446.074 251.83 443.03 251.249 440.429 250.087C437.856 248.925 435.712 247.32 433.996 245.272C432.281 243.197 430.994 240.79 430.136 238.051C429.278 235.284 428.85 232.323 428.85 229.169V227.965C428.85 224.783 429.278 221.823 430.136 219.083C430.994 216.317 432.281 213.909 433.996 211.862C435.712 209.787 437.856 208.168 440.429 207.006C443.002 205.844 446.018 205.263 449.477 205.263C453.157 205.263 456.381 205.968 459.147 207.379C461.942 208.791 464.128 210.81 465.705 213.439C467.31 216.04 468.126 219.125 468.154 222.694H456.906C456.879 221.2 456.56 219.844 455.952 218.627C455.371 217.41 454.513 216.441 453.378 215.722C452.272 214.975 450.902 214.601 449.27 214.601C447.526 214.601 446.101 214.975 444.995 215.722C443.888 216.441 443.03 217.437 442.421 218.71C441.813 219.955 441.384 221.38 441.135 222.985C440.913 224.562 440.803 226.222 440.803 227.965V229.169C440.803 230.912 440.913 232.586 441.135 234.191C441.356 235.796 441.771 237.221 442.38 238.466C443.016 239.711 443.888 240.693 444.995 241.413C446.101 242.132 447.54 242.492 449.311 242.492ZM486.748 187.25V251H474.794V187.25H486.748ZM485.046 226.969H481.767C481.795 223.843 482.21 220.965 483.012 218.336C483.815 215.68 484.963 213.384 486.457 211.447C487.951 209.482 489.736 207.96 491.811 206.881C493.914 205.802 496.238 205.263 498.784 205.263C500.997 205.263 503.003 205.581 504.802 206.217C506.628 206.826 508.191 207.822 509.492 209.206C510.82 210.561 511.844 212.346 512.563 214.56C513.282 216.773 513.642 219.457 513.642 222.611V251H501.606V222.528C501.606 220.536 501.315 218.973 500.734 217.838C500.181 216.676 499.365 215.86 498.286 215.39C497.234 214.892 495.934 214.643 494.384 214.643C492.669 214.643 491.202 214.961 489.985 215.597C488.795 216.234 487.84 217.119 487.121 218.253C486.402 219.36 485.876 220.661 485.544 222.155C485.212 223.649 485.046 225.254 485.046 226.969ZM536.22 190.57L534.851 232.531H524.89L523.479 190.57H536.22ZM523.146 245.521C523.146 243.751 523.755 242.284 524.973 241.122C526.218 239.932 527.85 239.337 529.87 239.337C531.918 239.337 533.55 239.932 534.768 241.122C535.985 242.284 536.594 243.751 536.594 245.521C536.594 247.237 535.985 248.69 534.768 249.879C533.55 251.069 531.918 251.664 529.87 251.664C527.85 251.664 526.218 251.069 524.973 249.879C523.755 248.69 523.146 247.237 523.146 245.521Z" fill="white"/>
<defs>
<clipPath id="clip0_29_38">
<rect width="175" height="175" fill="white" transform="translate(325 24)"/>
</clipPath>
</defs>
</svg>
